<svg width="855" height="256" viewBox="0 0 855 256" fill="none" xmlns="http://www.w3.org/2000/svg">
<path d="M403.919 241.72C394.127 241.72 386.399 233.848 386.399 223.72C386.399 213.64 394.127 205.816 403.919 205.816C413.375 205.816 420.671 212.104 421.775 221.224H412.175C411.455 216.904 408.239 213.928 404.015 213.928C398.927 213.928 395.711 217.864 395.711 223.72C395.711 229.624 398.927 233.608 404.015 233.608C408.191 233.608 411.407 230.632 412.175 226.264H421.775C420.623 235.48 413.375 241.72 403.919 241.72ZM437.661 241.48C430.029 241.48 424.173 235.48 424.173 228.088C424.173 220.696 430.029 214.696 437.661 214.696C445.293 214.696 451.149 220.696 451.149 228.088C451.149 235.48 445.293 241.48 437.661 241.48ZM437.661 234.136C440.205 234.136 442.605 232.12 442.605 228.088C442.605 224.056 440.205 222.088 437.661 222.088C435.117 222.088 432.717 224.056 432.717 228.088C432.717 232.12 435.117 234.136 437.661 234.136ZM463.123 227.416V241H454.915V215.176H462.451V218.296C464.467 216.04 466.867 214.696 470.131 214.696C475.219 214.696 478.819 218.104 478.819 224.392V241H470.611V227.128C470.611 223.864 469.459 222.088 466.963 222.088C464.947 222.088 463.123 223.528 463.123 227.416ZM501.071 232.936V240.088C499.247 241.096 497.519 241.48 495.215 241.48C489.407 241.48 485.999 238.024 485.999 232.12V222.328H481.199V215.176H485.999V207.592H494.207V215.176H501.263V222.328H494.207V230.2C494.207 232.696 495.263 233.848 497.519 233.848C498.863 233.848 500.159 233.512 501.071 232.936ZM520.05 241V238.504C518.226 240.568 515.97 241.48 512.658 241.48C507.282 241.48 503.682 238.264 503.682 233.368C503.682 228.328 507.762 225.592 515.154 225.592C516.546 225.592 517.842 225.688 518.946 225.88V224.632C518.946 222.376 517.65 221.128 515.346 221.128C513.09 221.128 511.746 222.376 511.458 224.632H504.066C504.546 218.632 509.01 214.696 515.394 214.696C522.498 214.696 526.674 218.536 526.674 225.064V241H520.05ZM511.41 233.128C511.41 234.808 512.562 235.816 514.578 235.816C517.314 235.816 518.946 234.52 518.946 232.408V230.776C517.698 230.536 516.738 230.44 515.682 230.44C512.898 230.44 511.41 231.352 511.41 233.128ZM543.166 241.48C535.486 241.48 530.158 235.96 530.158 228.088C530.158 220.408 535.726 214.696 543.166 214.696C550.27 214.696 555.55 219.496 556.27 226.696H547.534C547.39 223.864 545.71 222.088 543.214 222.088C540.334 222.088 538.654 224.296 538.654 228.088C538.654 231.976 540.286 234.136 543.214 234.136C545.758 234.136 547.342 232.408 547.534 229.48H556.27C555.55 236.872 550.51 241.48 543.166 241.48ZM577.336 232.936V240.088C575.512 241.096 573.784 241.48 571.48 241.48C565.672 241.48 562.264 238.024 562.264 232.12V222.328H557.464V215.176H562.264V207.592H570.472V215.176H577.528V222.328H570.472V230.2C570.472 232.696 571.528 233.848 573.784 233.848C575.128 233.848 576.424 233.512 577.336 232.936Z" fill="#13141D"/>
<path d="M620.603 238.456L624.683 239.032L624.443 241H614.027L613.691 240.424L615.323 222.712H615.131C614.427 225.912 613.675 228.712 612.875 231.112C612.075 233.48 611.163 235.448 610.139 237.016C609.147 238.584 607.963 239.752 606.587 240.52C605.243 241.288 603.659 241.672 601.835 241.672C599.819 241.672 598.171 241.24 596.891 240.376C595.611 239.512 594.699 238.216 594.155 236.488C593.611 234.76 593.403 232.584 593.531 229.96L594.635 209.224L591.083 208.504L591.323 206.584H606.107L605.867 208.504L602.075 209.32L600.923 230.344C600.827 232.264 600.859 233.768 601.019 234.856C601.211 235.944 601.579 236.712 602.123 237.16C602.667 237.576 603.403 237.784 604.331 237.784C605.419 237.784 606.427 237.4 607.355 236.632C608.283 235.832 609.131 234.712 609.899 233.272C610.667 231.832 611.355 230.152 611.963 228.232C612.571 226.28 613.083 224.152 613.499 221.848C613.947 219.544 614.315 217.128 614.603 214.6L615.179 209.272L611.483 208.504L611.723 206.584H625.979L625.787 208.504L622.331 209.272L620.603 238.456ZM637.649 239.704C639.025 239.704 640.161 239.368 641.057 238.696C641.953 237.992 642.401 237 642.401 235.72C642.401 234.952 642.193 234.312 641.777 233.8C641.393 233.288 640.801 232.84 640.001 232.456C639.201 232.072 638.209 231.688 637.025 231.304C635.681 230.856 634.401 230.312 633.185 229.672C632.001 229.032 631.041 228.216 630.305 227.224C629.569 226.232 629.201 224.984 629.201 223.48C629.201 222.52 629.409 221.576 629.825 220.648C630.241 219.72 630.881 218.872 631.745 218.104C632.641 217.336 633.745 216.728 635.057 216.28C636.401 215.8 637.985 215.56 639.809 215.56C641.313 215.56 642.705 215.768 643.985 216.184C645.265 216.6 646.289 217.192 647.057 217.96C647.857 218.728 648.257 219.624 648.257 220.648C648.257 221.448 647.969 222.088 647.393 222.568C646.849 223.048 646.161 223.288 645.329 223.288C644.721 223.288 644.129 223.192 643.553 223C642.977 222.808 642.513 222.584 642.161 222.328L642.593 220.312C642.817 219.416 642.673 218.712 642.161 218.2C641.681 217.688 640.785 217.432 639.473 217.432C638.449 217.432 637.601 217.592 636.929 217.912C636.257 218.2 635.761 218.6 635.441 219.112C635.121 219.592 634.961 220.168 634.961 220.84C634.961 221.544 635.153 222.152 635.537 222.664C635.953 223.176 636.529 223.64 637.265 224.056C638.001 224.44 638.833 224.808 639.761 225.16C640.913 225.544 641.969 225.976 642.929 226.456C643.921 226.904 644.785 227.432 645.521 228.04C646.257 228.616 646.833 229.32 647.249 230.152C647.665 230.952 647.873 231.912 647.873 233.032C647.873 234.76 647.425 236.28 646.529 237.592C645.633 238.872 644.369 239.88 642.737 240.616C641.105 241.32 639.169 241.672 636.929 241.672C635.233 241.672 633.713 241.48 632.369 241.096C631.057 240.744 630.017 240.232 629.249 239.56C628.481 238.856 628.097 238.008 628.097 237.016C628.097 236.024 628.417 235.288 629.057 234.808C629.697 234.296 630.481 234.04 631.409 234.04C631.889 234.04 632.369 234.104 632.849 234.232C633.361 234.328 633.777 234.472 634.097 234.664L634.145 237.016C634.177 237.944 634.449 238.632 634.961 239.08C635.473 239.496 636.369 239.704 637.649 239.704Z" fill="#B542FB"/>
<path d="M491.869 144.351C492.24 143.746 492.84 143.529 493.748 143.589C495.877 143.73 503.331 145.524 505.381 146.114C506.596 146.464 508.143 147.106 507.939 148.355C506.858 154.977 508.347 154.608 493.058 151.427C491.207 151.042 490.761 149.828 490.817 148.563C490.849 147.841 491.597 144.795 491.869 144.35L491.869 144.351ZM506.715 148.776C506.976 147.883 506.45 147.798 505.602 147.482C503.071 146.537 494.031 144.638 493.931 144.618C492.308 144.295 492.396 147.31 492.27 148.862C492.155 150.272 491.978 149.885 504.666 152.435C506.476 152.404 505.688 152.285 506.715 148.776Z" fill="#13141D"/>
<path d="M528.464 30.8178C527.59 30.7772 517.962 30.0682 518.228 28.497C518.424 27.3408 519.719 28.0138 528.97 28.9939C529.907 29.0935 530.605 30.5644 528.464 30.8178Z" fill="#13141D"/>
<path d="M515.364 27.0903C515.802 27.1041 516.318 27.5873 516.331 27.9985C516.346 28.4717 515.8 29.0314 515.343 29.0099C514.886 28.9885 514.342 28.3951 514.359 27.9586C514.389 27.2205 515.381 27.1072 515.364 27.0903Z" fill="#13141D"/>
<path d="M563.366 36.5468C563.344 38.8455 562.56 43.3623 561.989 45.3776C561.743 45.5476 561.515 45.2957 561.251 45.1801C560.503 44.8524 559.762 45.1334 559.55 45.8899C556.594 56.4734 554.329 67.8785 554.334 67.8578C553.264 72.7254 553.274 72.9819 554.489 73.1182C557.259 73.4291 555.601 68.3571 544.788 122.655C538.687 153.293 538.516 160.211 531.1 162.266C534.364 155.36 544.597 103.838 545.445 99.3128C556.711 39.2337 560.51 37.7559 557.366 30.5261C560.644 31.4886 563.398 33.1326 563.366 36.5468Z" fill="#B542FB"/>
<path d="M541.484 36.0813C493.239 28.5996 497.814 24.1976 494.109 40.2765L493.21 44.1701C493.83 43.6801 494.469 43.2138 495.127 42.7727C498.391 28.6991 498.329 30.4541 507.299 31.1517C508.514 31.2459 517.756 33.0192 521.985 33.9205C532.687 36.2022 546.624 37.396 549.407 38.8263C550.991 39.6402 551.036 39.7245 549.187 50.177C546.162 67.2698 536.628 107.046 536.02 111.926C535.981 112.238 529.435 144.207 529.365 144.516C528.556 148.043 521.899 145.608 503.526 141.57C503.503 141.566 480.703 136.485 478.023 135.316C476.512 134.657 475.995 134.245 477.763 124.7L476.699 124.223C476.215 127.216 475.738 130.268 475.27 133.386C474.843 136.227 479.945 137.267 482.767 137.882C504.813 142.684 510.762 144.739 523.327 146.955C530.98 148.305 530.268 146.905 532.892 133.545C539.417 100.323 550.136 54.4895 551.256 45.7743C552.27 37.8799 553.179 37.8937 541.484 36.0805L541.484 36.0813Z" fill="#13141D"/>
<path d="M483.001 98.9444L486.087 84.1219C485.582 83.3761 485.12 82.6204 484.698 81.8555C483.508 87.4259 482.339 93.1151 481.198 98.988L483.001 98.9444Z" fill="#13141D"/>
<path d="M477.879 99.4437L482.616 77.0761C482.298 76.1059 482.038 75.1281 481.832 74.1465C480.088 81.9987 478.058 91.2078 476.157 100.01L477.879 99.4437Z" fill="#13141D"/>
<path d="M564.728 38.6478C565.062 33.9005 563.624 31.2052 558.639 29.4885C553.053 27.5635 498.494 20.676 497.83 21.4257C496.055 21.5872 494.178 22.1079 493.225 23.4716C491.728 25.6087 488.471 42.474 486.921 50.8584C487.496 50.0345 488.112 49.2374 488.763 48.471C491.767 34.6554 494.02 24.6416 494.308 24.2304C496.967 20.4303 507.115 24.4494 554.275 29.7902C561.291 30.5842 553.739 49.9978 545.402 92.0332C531.985 159.687 530.916 162.992 528.134 162.44C527.08 162.231 528.068 162.805 517.497 160.671C510.233 159.204 510.14 158.798 507.15 158.094C467.901 148.847 467.962 152.119 470.868 133.439C471.005 132.558 471.874 128.249 473.204 121.814L471.841 120.472C471.337 122.958 470.896 125.192 470.539 127.087C464.952 156.742 467.125 148.765 509.379 160.21C544.158 169.63 536.606 162.085 547.158 119.091C547.165 119.066 557.069 73.8095 557.107 73.6617C557.468 72.2207 558.614 73.2873 559.236 71.321C561.108 65.4052 563.012 57.484 563.994 49.154C564.354 46.0919 562.881 47.4181 563.417 45.5942C564.452 42.0667 564.814 38.6187 564.728 38.6486V38.6478ZM559.003 68.6701C558.229 71.5691 558.185 72.3577 555.039 72.2245C554.01 72.1809 554.376 71.8095 556.824 60.7995C557.031 59.8676 556.88 60.262 560.12 61.128C561.06 61.3791 560.904 61.5415 559.003 68.6701ZM561.282 59.5039C561.092 60.6701 561.115 60.082 557.771 59.265C556.559 58.9687 557.605 58.4932 560.007 47.6815C560.434 45.7635 560.612 45.7788 562.156 47.056C563.516 48.1815 563.165 47.8194 561.282 59.5039ZM561.989 45.3775C561.743 45.5475 561.515 45.2948 561.251 45.18C560.504 44.85 559.761 45.1325 559.55 45.8898C556.584 56.4702 554.329 67.8784 554.334 67.8577C553.264 72.7253 553.275 72.981 554.489 73.1181C557.26 73.4282 555.602 68.357 544.788 122.655C538.687 153.293 538.516 160.211 531.1 162.265C534.364 155.36 544.598 103.838 545.445 99.3127C556.722 39.2359 560.51 37.7558 557.366 30.526C560.644 31.4885 563.398 33.1317 563.366 36.546C563.344 38.8446 562.56 43.3622 561.989 45.3775Z" fill="#13141D"/>
<path d="M578.102 69.141C576.599 71.4404 572.522 73.6035 571.667 74.1127C570.262 74.9503 570.527 75.4006 569.136 77.7566C568.595 78.6732 567.413 78.2467 567.518 77.1785C568.04 71.8508 571.511 72.5009 575.601 68.6287C576.797 67.4963 577.291 65.9794 575.98 64.9733C573.324 62.9342 570.551 63.9503 569.452 64.1624C568.792 64.2903 568.404 63.6532 568.78 63.0805C571.09 59.5583 582.28 62.7497 578.102 69.141Z" fill="#B542FB"/>
<path d="M568.385 82.7007C568.368 84.5039 565.589 84.327 565.668 82.5674C565.748 80.8079 568.402 80.8906 568.385 82.7007Z" fill="#B542FB"/>
<path d="M470.811 28.9418C475.001 28.7918 477.012 33.0728 475.215 36.2612C473.868 38.6509 471.646 39.9403 472.783 43.2168C473.842 46.2711 471.642 46.1777 471.058 44.9626C469 40.6777 471.067 38.3186 472.644 36.1379C474.806 33.1493 472.626 30.7703 470.156 31.1899C466.126 31.8745 465.016 34.5391 464.04 36.0131C463.672 36.5674 462.887 36.4128 462.756 35.6762C462.42 33.7872 465.466 29.1333 470.811 28.9418Z" fill="#B542FB"/>
<path d="M476.424 50.533C476.408 52.0988 473.849 52.2489 473.812 50.533C473.777 48.9066 476.442 48.7688 476.424 50.533Z" fill="#B542FB"/>
<path d="M462.192 54.1984C466.381 54.0483 468.392 58.3294 466.595 61.5177C465.248 63.9075 463.027 65.1969 464.163 68.4734C465.223 71.5277 463.022 71.4343 462.439 70.2192C460.381 65.9343 462.447 63.5752 464.025 61.3945C466.187 58.4059 464.006 56.0269 461.537 56.4465C457.507 57.1311 456.397 59.7957 455.42 61.2697C455.053 61.824 454.267 61.6694 454.136 60.9328C453.8 59.0438 456.847 54.3898 462.192 54.1984Z" fill="#B542FB"/>
<path d="M467.804 75.7895C467.788 77.3554 465.229 77.5055 465.192 75.7895C465.156 74.1632 467.822 74.0254 467.804 75.7895Z" fill="#B542FB"/>
<path d="M540.037 67.5989C540.383 91.7989 510.117 107.16 490.889 88.5194C480.575 78.5201 478.761 62.6579 488.685 49.8745C505.651 28.0191 539.659 41.1784 540.037 67.5989ZM498.513 60.9366C499.931 55.6195 500.098 54.1869 500.999 51.9051C503.795 44.8148 516.466 46.3393 522.064 50.6073C529.809 56.5116 521.229 64.9343 523.567 65.8156C528.094 67.5216 525.063 72.4642 522.996 73.6403C521.138 74.697 520.373 73.5622 519.585 74.7812C514.261 83.0132 513.631 79.1242 512.65 83.3746C512.49 84.0676 512.491 84.0638 513.179 84.3065C524.014 88.1312 525.124 90.9972 526.321 90.1764C546.559 76.3026 539.399 45.4074 515.626 41.268C493.695 37.4495 476.446 60.3646 487.859 81.3333C488.568 82.6365 488.006 80.8509 499.563 81.4948C500.04 81.5216 499.813 81.0553 500.15 79.8126C500.434 78.7613 499.528 78.7238 498.758 76.4114C497.646 73.0744 497.738 70.9994 497.305 69.1173C497.065 68.0721 496.543 68.0675 495.495 67.602C492.8 66.4067 494.1 58.8232 498.513 60.935L498.513 60.9366ZM518.305 74.347C519.512 72.5438 519.49 72.7659 521.169 72.6012C522.094 72.5101 522.778 72.0094 523.222 71.1939C524.667 68.5354 525.077 67.8692 522.802 66.9488C521.779 66.5346 521.618 66.3064 521.895 65.2314C522.258 63.8278 522.575 62.4105 523.129 61.0583C524.249 58.3232 524.817 54.9587 522.752 52.8454C516.999 46.9579 503.741 45.974 501.732 52.7949C499.607 60.0085 500.002 62.8286 498.22 61.9442C496.714 61.1969 495.502 62.3738 495.331 64.1035C494.983 67.6296 497.876 65.6456 498.619 68.6204C499.362 71.5951 498.843 78.7896 504.865 80.684C510.939 82.5952 515.029 79.2414 518.305 74.347ZM524.356 91.3065C521.688 89.4696 513.993 85.8678 512.134 85.3808C511.742 86.9076 511.454 88.844 509.99 89.3111C506.87 90.3065 504.192 89.1779 500.869 87.5921C498.392 86.4106 499.623 84.648 499.558 82.8157C496.023 82.4734 492.542 82.7935 488.982 82.9926C496.976 94.8287 512.775 97.9919 524.356 91.3065ZM511.384 82.135C507.688 83.0791 504.294 82.5852 501.206 80.2981C500.992 80.7988 501.046 81.2567 500.969 81.6901C500.318 85.3348 500.332 85.5913 501.075 86.0852C502.535 87.0554 505.811 88.4558 508.686 88.1733C510.188 88.0255 510.039 88.0439 511.275 83.0109C511.339 82.7514 511.49 82.4949 511.385 82.1342L511.384 82.135Z" fill="#B542FB"/>
<path d="M511.69 54.6418C517.117 54.8424 518.88 58.5836 517.349 61.38C515.898 64.0308 513.957 64.9167 511.899 66.3011C510.099 67.5125 510.5 68.3555 509.99 69.4037C509.453 70.5071 508.268 70.1503 508.262 69.0094C508.236 64.1457 514.82 63.8034 515.851 59.9137C516.193 58.6242 514.929 57.3003 513.67 56.8585C510.147 55.6204 507.778 57.8937 507.033 58.0959C506.454 58.2529 506.078 57.7605 506.292 57.2751C507.001 55.6625 510.082 54.4381 511.69 54.6418Z" fill="#B542FB"/>
<path d="M509.307 73.5109C509.28 75.2383 506.692 75.2184 506.783 73.3983C506.813 72.7949 507.46 72.2306 508.109 72.2451C508.758 72.2597 509.318 72.8638 509.307 73.5109Z" fill="#B542FB"/>
<path d="M516.068 106.759C508.421 106.379 501.786 112.162 501.477 120.191C501.201 127.353 506.771 134.199 514.905 134.609C522.5 134.992 529.056 129.026 529.308 121.221C529.531 114.323 524.039 107.155 516.068 106.759ZM521.883 125.498C517.798 124.754 517.381 124.293 517.486 122.726C517.556 121.677 517.402 121.463 516.385 121.057C515.597 120.742 514.781 120.624 513.94 120.575C513.235 120.534 513.31 121.099 513.3 121.919C513.285 123.033 512.817 124.029 511.616 123.941C510.3 123.846 509.031 123.485 507.826 122.972C506.221 122.29 505.721 121.127 505.943 119.364C506.3 116.524 508.274 113.953 511.66 114.249C514.051 114.458 523.085 116.373 524.157 118.41C526.496 122.86 524.666 126.004 521.883 125.497V125.498Z" fill="#B542FB"/>
<path d="M485.947 121.014C483.622 122.369 480.985 122.509 479.065 120.623C477.414 119.001 475.002 113.08 474.208 110.951C472.087 105.262 479.002 100.652 480.937 104.942C482.339 108.052 482.924 108.839 481.434 109.856C480.502 110.493 480.401 110.812 480.744 111.88C480.995 112.66 481.4 113.349 481.87 114.014C482.402 114.766 482.808 113.849 483.96 113.3C484.8 112.899 485.601 113.081 486.061 113.878C487.701 116.722 488.686 119.418 485.947 121.014Z" fill="#B542FB"/>
<path d="M482.28 98.0829C474.234 98.0071 468.225 104.411 468.243 112.417C468.259 119.761 474.17 125.999 481.955 126.036C489.788 126.074 495.956 120.052 495.957 111.97C495.957 104.414 490.042 98.1557 482.28 98.0829ZM482.283 124.534C475.578 124.661 469.941 119.539 469.523 112.541C469.102 105.483 474.781 99.8693 481.568 99.6228C488.618 99.367 494.445 104.751 494.637 111.747C494.824 118.596 489.435 124.399 482.283 124.534Z" fill="#B542FB"/>
<path d="M20.5269 18.9137C14.0849 29.4018 11 40.8845 11 55.2604C11 68.1897 12.4517 74.5188 17.8957 85.5494C20.9805 91.8784 23.1581 94.7717 30.5982 102.186C39.127 110.685 39.6714 111.408 40.5787 116.2C43.9358 134.825 63.7154 154.897 91.2073 167.736C116.068 179.309 156.444 188.713 182.665 188.984C191.648 189.074 193.916 188.803 194.642 187.718C195.912 185.638 194.37 185.277 180.579 184.101C148.278 181.57 116.068 173.613 92.4776 162.402C74.3311 153.903 59.3603 141.878 51.4666 129.581C48.3817 124.609 44.5709 115.477 45.2968 114.663C45.569 114.392 48.7446 115.115 52.3739 116.2C60.1769 118.46 64.7135 118.551 70.8833 116.742C77.3253 114.844 81.3175 110.504 81.9526 104.627C82.497 98.6595 81.7712 96.2183 78.4141 92.4209C74.6033 88.081 69.1594 86.1823 61.9915 86.6343C52.4646 87.2672 45.7505 91.788 42.4841 99.6541C41.5768 101.824 40.3065 103.632 39.5807 103.632C37.766 103.632 28.1484 93.325 24.6098 87.4481C14.1756 70.4501 13.0868 46.3998 21.7064 25.3331C23.5211 20.9932 24.7006 17.1054 24.4284 16.7437C23.5211 15.2971 22.4323 15.93 20.5269 18.9137ZM68.7057 91.8784C72.9701 93.1442 77.5975 98.2978 77.5975 101.914C77.5975 108.967 71.9721 113.126 62.173 113.035C54.0071 113.035 45.8412 109.419 45.8412 105.802C45.8412 101.282 50.1056 95.5854 55.1866 93.1442C60.3584 90.7934 63.534 90.5222 68.7057 91.8784Z" fill="#13141D"/>
<path d="M844.237 1.44842C847.458 6.66216 849 12.3703 849 19.5167C849 25.944 848.274 29.0902 845.552 34.5737C844.01 37.7199 842.921 39.1582 839.201 42.8437C834.936 47.0687 834.664 47.4282 834.211 49.8104C832.532 59.0693 822.642 69.0473 808.896 75.4296C796.466 81.1827 776.278 85.8571 763.167 85.992C758.676 86.0369 757.542 85.9021 757.179 85.3627C756.544 84.329 757.315 84.1492 764.211 83.5649C780.361 82.3064 796.466 78.3511 808.261 72.7778C817.334 68.5529 824.82 62.5751 828.767 56.4624C830.309 53.9904 832.215 49.4508 831.852 49.0463C831.716 48.9115 830.128 49.271 828.313 49.8104C824.412 50.934 822.143 50.979 819.058 50.0801C815.837 49.1362 813.841 46.9788 813.524 44.0573C813.251 41.0908 813.614 39.8773 815.293 37.9896C817.198 35.8322 819.92 34.8883 823.504 35.113C828.268 35.4276 831.625 37.6749 833.258 41.5853C833.712 42.664 834.347 43.5629 834.71 43.5629C835.617 43.5629 840.426 38.439 842.195 35.5175C847.412 27.0677 847.957 15.112 843.647 4.63959C842.739 2.48218 842.15 0.549492 842.286 0.369713C842.739 -0.349426 843.284 -0.0348053 844.237 1.44842ZM820.147 37.7199C818.015 38.3491 815.701 40.9111 815.701 42.7089C815.701 46.2147 818.514 48.2822 823.413 48.2373C827.496 48.2373 831.579 46.4394 831.579 44.6416C831.579 42.3943 829.447 39.5627 826.907 38.3491C824.321 37.1805 822.733 37.0457 820.147 37.7199Z" fill="#13141D"/>
<path d="M1.33471 51.3574C-2.01326 59.1665 1.43037 78 6.21318 78C8.50893 78 8.50893 76.8057 6.69146 59.8096C5.35227 47.2233 4.01309 45.2021 1.33471 51.3574Z" fill="#13141D"/>
<path d="M854.333 17.6787C856.007 21.5832 854.285 31 851.893 31C850.746 31 850.746 30.4028 851.654 21.9048C852.324 15.6116 852.993 14.601 854.333 17.6787Z" fill="#13141D"/>
<path d="M85 140.55C85 142.952 92.5338 150.436 99.7046 155.241C109.235 161.524 118.312 164.573 133.834 166.513C140.914 167.437 144 167.068 144 165.22C144 163.741 141.005 162.54 131.292 160.138C114.046 155.795 102.155 150.621 92.5338 142.952C86.9969 138.517 85 137.963 85 140.55Z" fill="#13141D"/>
<path d="M812 61.7749C812 62.976 808.297 66.7181 804.772 69.1204C800.088 72.2619 795.626 73.7864 787.997 74.7566C784.517 75.2185 783 75.0338 783 74.1098C783 73.3706 784.472 72.77 789.246 71.5689C797.723 69.3976 803.568 66.8105 808.297 62.976C811.018 60.7585 812 60.4813 812 61.7749Z" fill="#13141D"/>
<path d="M255.114 151.111C254.023 152.484 252.204 158.246 249.475 168.857L247.474 176.358L232.829 182.03C216.001 188.525 214 189.622 214 192.092C214 195.019 217.82 196.666 230.282 198.953C236.831 200.142 242.562 201.331 243.108 201.697C244.29 202.429 244.29 210.021 243.017 222.919C241.834 234.994 242.198 236 247.928 236C249.93 236 263.938 232.524 278.946 228.225C294.046 224.017 309.145 219.9 312.693 219.077C320.243 217.339 323.335 215.51 322.971 213.131C322.789 212.125 318.878 208.009 314.148 203.801C309.418 199.593 299.412 189.622 291.954 181.572C269.122 157.057 267.212 155.136 264.12 152.484C261.027 149.831 256.752 149.19 255.114 151.111ZM271.942 168.034C277.855 174.437 286.587 183.768 291.317 188.708C296.047 193.647 300.049 198.129 300.231 198.587C300.595 199.41 296.047 197.398 268.759 184.591C256.752 178.92 253.113 176.816 253.386 175.718C256.934 163.003 259.208 156.417 260.117 156.417C260.663 156.417 265.939 161.631 271.942 168.034ZM280.311 195.477C303.688 207.277 307.326 209.472 302.05 208.832C284.404 206.637 255.842 200.691 246.746 197.306C243.471 196.117 238.014 194.562 234.466 193.922C231.01 193.19 227.735 192.367 227.28 192.001C226.826 191.635 229.918 189.714 234.102 187.884C238.196 185.963 243.289 183.493 245.291 182.396L248.929 180.475L253.477 182.304C256.024 183.402 268.122 189.256 280.311 195.477ZM258.48 205.813C264.938 207.46 299.049 214.046 301.596 214.046C303.961 214.138 299.503 215.784 289.498 218.62C283.767 220.175 272.397 223.742 264.211 226.487C256.115 229.231 249.02 231.426 248.474 231.426C247.474 231.426 247.565 228.225 249.111 210.113C249.384 206.728 250.021 203.984 250.566 203.984C251.021 203.984 254.66 204.807 258.48 205.813Z" fill="#13141D"/>
<path d="M727.254 67.5557C727.805 68.2418 728.723 71.1232 730.1 76.4287L731.11 80.1792L738.499 83.0149C746.99 86.2623 748 86.8111 748 88.046C748 89.5096 746.072 90.3329 739.784 91.4764C736.48 92.0709 733.588 92.6655 733.313 92.8485C732.716 93.2144 732.716 97.0106 733.359 103.46C733.955 109.497 733.772 110 730.88 110C729.87 110 722.802 108.262 715.229 106.112C707.61 104.008 699.991 101.95 698.201 101.539C694.391 100.67 692.831 99.7548 693.014 98.5656C693.106 98.0625 695.08 96.0044 697.467 93.9004C699.853 91.7965 704.902 86.8111 708.666 82.7862C720.186 70.5286 721.15 69.5681 722.71 68.2418C724.271 66.9154 726.428 66.5952 727.254 67.5557ZM718.763 76.0171C715.78 79.2187 711.374 83.8839 708.987 86.3538C706.6 88.8236 704.581 91.0647 704.489 91.2934C704.305 91.705 706.6 90.6988 720.37 84.2956C726.428 81.4599 728.264 80.4079 728.126 79.8591C726.336 73.5016 725.189 70.2085 724.73 70.2085C724.454 70.2085 721.792 72.8155 718.763 76.0171ZM714.54 89.7383C702.745 95.6385 700.909 96.7362 703.571 96.416C712.475 95.3183 726.887 92.3454 731.477 90.6531C733.129 90.0585 735.883 89.281 737.673 88.9608C739.417 88.5949 741.069 88.1833 741.299 88.0003C741.528 87.8174 739.968 86.8569 737.857 85.9421C735.791 84.9816 733.221 83.7467 732.211 83.1979L730.375 82.2374L728.08 83.1521C726.795 83.701 720.691 86.6282 714.54 89.7383ZM725.556 94.9067C722.297 95.7299 705.086 99.023 703.8 99.023C702.607 99.0688 704.856 99.892 709.905 101.31C712.796 102.087 718.534 103.871 722.664 105.243C726.749 106.615 730.329 107.713 730.605 107.713C731.11 107.713 731.064 106.112 730.283 97.0563C730.146 95.364 729.824 93.9919 729.549 93.9919C729.32 93.9919 727.484 94.4035 725.556 94.9067Z" fill="#13141D"/>
</svg>
